<svg width="14" height="14" viewBox="0 0 14 14" fill="none" xmlns="http://www.w3.org/2000/svg">
<g clip-path="url(#clip0_1_415)">
<path d="M13.16 7.14583C13.16 6.69083 13.1192 6.25333 13.0433 5.83333H7V8.31833H10.4533C10.3017 9.11749 9.84667 9.79416 9.16417 10.2492V11.865H11.2467C12.46 10.745 13.16 9.09999 13.16 7.14583Z" fill="#4285F4"/>
<path d="M7 13.4167C8.7325 13.4167 10.185 12.845 11.2467 11.865L9.16417 10.2492C8.5925 10.6342 7.86333 10.8675 7 10.8675C5.33167 10.8675 3.91417 9.74167 3.40667 8.22501H1.27167V9.88167C2.3275 11.9758 4.49167 13.4167 7 13.4167Z" fill="#34A853"/>
<path d="M3.40665 8.21916C3.27831 7.83416 3.20248 7.42583 3.20248 6.99999C3.20248 6.57416 3.27831 6.16583 3.40665 5.78083V4.12416H1.27165C0.834146 4.98749 0.583313 5.96166 0.583313 6.99999C0.583313 8.03833 0.834146 9.01249 1.27165 9.87583L2.93415 8.58083L3.40665 8.21916Z" fill="#FBBC05"/>
<path d="M7 3.13833C7.945 3.13833 8.785 3.46499 9.45583 4.09499L11.2933 2.25749C10.1792 1.21916 8.7325 0.583328 7 0.583328C4.49167 0.583328 2.3275 2.02416 1.27167 4.12416L3.40667 5.78083C3.91417 4.26416 5.33167 3.13833 7 3.13833Z" fill="#EA4335"/>
</g>
<defs>
<clipPath id="clip0_1_415">
<rect width="14" height="14" fill="white"/>
</clipPath>
</defs>
</svg>
